<?xml version="1.0" standalone="no"?>
<!DOCTYPE svg PUBLIC "-//W3C//DTD SVG 20010904//EN"
 "http://www.w3.org/TR/2001/REC-SVG-20010904/DTD/svg10.dtd">
<svg version="1.0" xmlns="http://www.w3.org/2000/svg"
 width="555.000000pt" height="343.000000pt" viewBox="0 0 555.000000 343.000000"
 preserveAspectRatio="xMidYMid meet">

<g transform="translate(0.000000,343.000000) scale(0.100000,-0.100000)"
fill="#000000" stroke="none">
<path d="M2629 3167 c-53 -95 -154 -273 -224 -397 -190 -335 -274 -486 -280
-502 -5 -11 18 -7 90 18 149 52 306 74 531 74 168 0 205 -3 303 -25 130 -29
337 -109 431 -165 196 -117 364 -332 405 -518 7 -31 20 -82 28 -113 8 -31 21
-99 27 -151 11 -84 10 -110 -9 -232 -23 -148 -35 -190 -100 -337 -32 -73 -57
-112 -107 -167 l-66 -72 536 0 c295 0 536 3 536 8 0 4 -237 6 -527 4 l-528 -3
31 28 c53 48 99 114 141 208 60 131 72 175 94 325 23 151 20 219 -13 365 -11
50 -24 113 -30 140 -31 155 -208 401 -353 489 -27 16 -52 33 -55 38 -9 12
-258 118 -325 138 -158 46 -224 55 -425 55 -224 -1 -365 -19 -501 -65 -48 -17
-90 -30 -94 -30 -4 0 0 11 9 24 22 35 53 89 99 174 21 41 68 124 104 185 36
62 84 146 106 187 22 41 72 131 112 200 40 69 89 154 109 190 l36 65 0 -377
c0 -212 4 -378 9 -378 13 0 51 52 332 460 40 58 90 130 112 160 21 30 46 67
55 82 22 36 35 36 28 1 -8 -44 -19 -759 -12 -772 7 -10 64 24 91 55 6 7 32 28
58 48 26 19 55 43 63 51 9 8 32 28 52 43 20 15 46 35 57 44 11 9 39 32 62 50
84 67 249 203 286 236 22 18 41 32 43 29 3 -2 -7 -31 -21 -63 -14 -33 -46
-111 -71 -174 -48 -123 -71 -180 -159 -389 -37 -88 -53 -137 -47 -143 6 -6 16
-7 24 -2 7 5 76 27 153 50 214 64 408 125 430 135 18 8 192 59 201 59 2 0 -31
-47 -74 -105 -42 -58 -103 -143 -135 -188 -100 -143 -127 -181 -162 -227 -19
-25 -38 -51 -42 -59 -10 -21 26 -41 76 -42 25 0 71 -2 101 -5 118 -9 515 -45
523 -47 5 -2 -42 -31 -105 -66 -62 -35 -161 -91 -219 -125 -58 -33 -151 -83
-206 -111 -137 -68 -137 -80 -5 -118 53 -16 111 -34 127 -42 17 -7 80 -27 140
-45 61 -18 121 -37 135 -43 14 -5 32 -11 40 -13 8 -2 50 -13 92 -25 l78 -22
-68 -24 c-87 -31 -229 -73 -267 -80 -16 -3 -34 -8 -40 -13 -5 -4 -66 -24 -135
-44 -69 -20 -134 -41 -145 -46 -11 -5 -30 -12 -42 -15 -13 -4 -23 -12 -23 -18
1 -13 57 -56 130 -98 25 -15 77 -49 115 -75 156 -107 320 -214 329 -214 14 0
24 -7 -274 190 -151 100 -279 186 -283 190 -5 4 13 15 40 23 26 9 188 59 358
112 171 54 314 101 319 105 7 7 -105 45 -518 175 -82 26 -161 51 -175 56 -26
11 26 42 526 321 62 35 112 65 113 68 0 3 -156 21 -347 39 -192 18 -356 35
-365 37 -20 6 -39 -23 231 352 101 140 181 256 178 259 -3 2 -115 -30 -249
-72 -362 -113 -563 -174 -566 -170 -3 3 40 111 198 500 45 110 90 222 101 249
l20 49 -43 -34 c-24 -20 -189 -153 -367 -298 -177 -144 -325 -260 -328 -257
-3 2 0 188 6 412 7 223 10 408 8 411 -2 2 -78 -104 -169 -234 -91 -131 -210
-302 -264 -380 l-99 -142 -5 389 -5 388 -96 -171z"/>
<path d="M2298 2213 l-58 -4 -143 -167 c-617 -721 -860 -1002 -890 -1031 -20
-19 -34 -37 -32 -41 2 -4 -12 -22 -33 -41 l-37 -34 34 38 c19 20 30 37 25 37
-6 0 -21 -11 -34 -25 -31 -33 -152 -116 -217 -149 -75 -37 -166 -37 -234 2
-27 15 -49 32 -49 39 0 6 28 27 63 45 34 19 72 49 84 68 42 61 22 174 -37 219
-63 46 -168 43 -239 -8 -29 -21 -84 -115 -95 -164 -16 -70 47 -247 107 -298
41 -35 132 -85 178 -98 91 -25 244 21 370 112 46 33 113 81 149 105 36 25 95
69 132 99 l67 53 405 0 406 0 0 -139 c0 -76 3 -166 6 -200 l7 -61 108 0 109 0
0 825 0 825 -47 -2 c-27 -1 -74 -3 -105 -5z m-38 -16 c0 -2 -17 -19 -37 -38
-34 -30 -35 -31 -13 -4 29 35 50 52 50 42z m-80 -91 c0 -2 -8 -10 -17 -17 -16
-13 -17 -12 -4 4 13 16 21 21 21 13z m-77 -90 c-15 -18 -86 -103 -158 -187
-71 -85 -176 -210 -234 -279 -58 -69 -117 -138 -132 -155 -14 -16 -74 -84
-131 -150 -58 -67 -114 -127 -124 -135 -22 -17 2 12 141 175 57 66 203 237
326 380 122 143 247 288 277 323 58 65 83 86 35 28z m125 -921 c-6 -4 -691 15
-696 19 -2 3 153 189 344 415 l349 410 3 -421 c1 -232 1 -422 0 -423z m-550
-12 c-21 -2 -57 -2 -80 0 -24 2 -7 4 37 4 44 0 63 -2 43 -4z m-578 -187 c0 -2
-8 -10 -17 -17 -16 -13 -17 -12 -4 4 13 16 21 21 21 13z m-40 -30 c0 -2 -8
-10 -17 -17 -16 -13 -17 -12 -4 4 13 16 21 21 21 13z m-60 -41 c0 -8 -63 -45
-75 -45 -5 1 8 12 30 25 43 27 45 28 45 20z"/>
<path d="M1970 1420 c-43 -43 -33 -118 21 -145 76 -40 144 68 88 139 -26 33
-79 36 -109 6z"/>
<path d="M2540 1390 l0 -820 53 1 c28 0 75 4 102 7 42 6 51 11 53 30 4 28 4
28 52 -4 50 -33 99 -29 162 13 148 99 228 319 215 586 -9 169 -43 280 -110
355 -28 30 -101 72 -127 72 -41 0 -99 -40 -147 -102 l-48 -63 -3 373 -2 372
-100 0 -100 0 0 -820z m183 443 c-3 -377 1 -421 32 -378 86 116 140 165 183
165 20 0 81 -37 114 -70 39 -38 85 -143 97 -220 15 -91 15 -272 2 -353 -20
-119 -68 -219 -143 -298 -77 -82 -147 -99 -215 -51 -37 25 -62 24 -69 -4 -5
-21 -12 -23 -90 -26 l-84 -3 0 803 0 802 88 0 87 0 -2 -367z"/>
<path d="M2843 1482 c-18 -2 -33 -7 -33 -12 0 -5 -11 -21 -24 -37 -12 -15 -33
-59 -46 -98 -21 -64 -24 -92 -28 -322 -4 -231 0 -314 14 -300 3 3 22 -6 41
-19 72 -49 142 -25 187 64 44 87 56 151 56 290 0 185 -20 291 -71 369 -44 67
-48 70 -96 65z m59 -39 c49 -55 66 -96 82 -204 36 -244 9 -439 -74 -526 -31
-33 -108 -32 -148 2 -16 13 -32 21 -36 18 -3 -4 -4 114 0 263 6 250 8 274 30
338 32 91 66 132 110 135 5 1 22 -11 36 -26z"/>
<path d="M3535 1633 c-90 -48 -169 -123 -204 -193 -160 -317 -93 -757 126
-829 38 -12 48 -12 90 4 93 35 181 155 190 260 l5 50 -46 -67 c-56 -82 -99
-116 -157 -124 -41 -5 -45 -4 -62 25 -31 53 -57 153 -63 241 -6 83 11 236 36
322 15 51 89 159 122 178 25 14 29 13 52 -9 l25 -24 -29 -33 c-39 -45 -50
-116 -23 -152 11 -14 34 -30 52 -35 71 -18 131 73 131 199 0 76 -42 152 -100
182 -52 26 -103 28 -145 5z m22 -23 c-75 -29 -171 -110 -202 -169 -8 -17 -18
-31 -20 -31 -3 0 3 17 14 38 37 70 179 182 230 182 20 -1 15 -5 -22 -20z m73
-211 c-7 -11 -14 -18 -17 -15 -8 8 5 36 17 36 7 0 7 -6 0 -21z"/>
<path d="M3308 405 c5 -41 22 -37 22 6 0 17 -5 29 -13 29 -9 0 -12 -11 -9 -35z"/>
<path d="M3360 405 c0 -19 5 -35 10 -35 6 0 10 9 10 19 0 11 3 26 6 35 4 11 1
16 -10 16 -12 0 -16 -10 -16 -35z"/>
<path d="M5378 405 c5 -41 22 -37 22 6 0 17 -5 29 -13 29 -9 0 -12 -11 -9 -35z"/>
<path d="M5430 405 c0 -19 5 -35 10 -35 6 0 10 9 10 19 0 11 3 26 6 35 4 11 1
16 -10 16 -12 0 -16 -10 -16 -35z"/>
<path d="M93 410 c-35 -21 -46 -38 -14 -20 11 5 22 10 25 10 3 0 6 -36 6 -80
0 -74 -2 -81 -22 -90 -18 -7 -9 -9 37 -9 46 0 55 2 38 9 -22 9 -23 15 -23 105
0 52 -3 95 -7 95 -5 0 -23 -9 -40 -20z"/>
<path d="M261 411 c-24 -24 -36 -80 -27 -123 19 -93 114 -88 132 7 18 100 -48
173 -105 116z m69 -17 c6 -14 10 -45 10 -69 0 -60 -15 -95 -40 -95 -25 0 -40
35 -40 95 0 60 15 95 40 95 13 0 24 -10 30 -26z"/>
<path d="M441 411 c-24 -24 -36 -80 -27 -123 19 -93 114 -88 132 7 18 100 -48
173 -105 116z m69 -17 c6 -14 10 -45 10 -69 0 -60 -15 -95 -40 -95 -25 0 -40
35 -40 95 0 60 15 95 40 95 13 0 24 -10 30 -26z"/>
<path d="M1798 418 c7 -7 12 -43 12 -93 0 -50 -5 -86 -12 -93 -9 -9 -3 -12 28
-11 21 0 33 3 27 6 -9 3 -13 33 -13 99 l0 94 31 0 c22 0 32 -5 36 -20 7 -28
23 -25 23 5 0 24 -2 25 -72 25 -56 0 -69 -3 -60 -12z"/>
<path d="M3455 376 l34 -53 -26 -39 c-14 -21 -33 -45 -41 -52 -14 -10 -11 -12
16 -12 24 0 30 4 26 15 -6 16 20 65 35 65 12 0 34 -57 26 -69 -4 -7 8 -11 32
-11 21 0 33 4 27 8 -16 10 -64 89 -64 105 0 8 14 33 30 55 l30 42 -26 0 c-14
0 -22 -4 -19 -10 3 -5 -2 -24 -11 -41 l-16 -32 -19 24 c-11 13 -17 32 -15 42
3 13 -2 17 -25 17 l-29 0 35 -54z"/>
<path d="M4528 418 c16 -16 16 -170 0 -186 -9 -9 -1 -12 38 -12 71 0 93 9 101
39 14 53 -8 81 -64 81 -32 0 -33 1 -33 40 0 37 2 40 27 40 14 0 35 -7 45 -17
17 -15 18 -15 18 5 0 21 -5 22 -72 22 -56 0 -69 -3 -60 -12z m101 -97 c8 -5
14 -24 14 -41 0 -34 -15 -50 -50 -50 -21 0 -23 5 -23 50 0 45 2 50 23 50 12 0
28 -4 36 -9z"/>
<path d="M665 295 l0 -75 30 1 c17 0 24 3 18 6 -9 3 -13 27 -13 69 0 59 2 64
21 64 12 0 28 -8 35 -17 12 -17 13 -16 14 5 0 20 -5 22 -52 22 l-53 0 0 -75z"/>
<path d="M820 350 c-29 -29 -27 -94 2 -114 52 -37 108 -4 108 63 0 30 -6 44
-22 55 -31 22 -64 20 -88 -4z m70 -5 c26 -32 9 -115 -25 -115 -21 0 -37 28
-37 65 0 37 16 65 37 65 7 0 18 -7 25 -15z"/>
<path d="M1008 345 c5 -28 -24 -115 -39 -115 -5 0 -9 -15 -9 -32 l0 -33 13 25
c11 22 19 25 67 25 49 0 55 -2 58 -22 5 -34 22 -28 22 7 0 20 -5 30 -15 30
-12 0 -15 13 -15 58 0 32 5 63 12 70 9 9 0 12 -44 12 -54 0 -55 -1 -50 -25z
m62 -50 l0 -65 -36 0 c-30 0 -35 3 -29 18 3 9 11 38 17 65 9 35 16 47 30 47
16 0 18 -9 18 -65z"/>
<path d="M1155 295 l0 -75 30 0 c23 0 26 3 15 10 -12 8 -9 16 23 47 l37 38 0
-42 c0 -24 -5 -43 -12 -46 -7 -3 1 -6 17 -6 l30 -1 0 75 0 75 -30 -1 c-16 0
-24 -3 -17 -6 21 -8 14 -27 -23 -63 l-35 -34 0 46 c0 28 5 48 13 51 6 3 -1 6
-18 6 l-30 1 0 -75z"/>
<path d="M1345 295 l0 -75 30 1 c17 0 24 3 18 6 -7 2 -13 18 -13 34 0 27 3 29
35 29 32 0 35 -2 35 -29 0 -16 -6 -32 -12 -34 -7 -3 1 -6 17 -6 l30 -1 0 75 0
75 -30 -1 c-16 0 -24 -3 -17 -6 6 -2 12 -18 12 -34 0 -26 -3 -29 -35 -29 -32
0 -35 3 -35 29 0 16 6 32 13 34 6 3 -1 6 -18 6 l-30 1 0 -75z"/>
<path d="M1535 295 l0 -75 30 0 c23 0 26 3 15 10 -12 8 -9 16 23 47 l37 38 0
-42 c0 -24 -5 -43 -12 -46 -7 -3 1 -6 17 -6 l30 -1 0 75 0 75 -30 -1 c-16 0
-24 -3 -17 -6 21 -8 14 -27 -23 -63 l-35 -34 0 46 c0 28 5 48 13 51 6 3 -1 6
-18 6 l-30 1 0 -75z"/>
<path d="M1965 295 l0 -75 30 0 c23 0 26 3 15 10 -12 8 -9 16 23 47 l37 38 0
-42 c0 -24 -5 -43 -12 -46 -7 -3 1 -6 17 -6 l30 -1 0 75 0 75 -30 -1 c-16 0
-24 -3 -17 -6 21 -8 14 -27 -23 -63 l-35 -34 0 46 c0 28 5 48 13 51 6 3 -1 6
-18 6 l-30 1 0 -75z"/>
<path d="M2155 295 c0 -73 1 -75 25 -75 19 0 21 3 12 12 -7 7 -12 35 -11 62
l1 51 24 -52 c13 -29 26 -53 29 -53 4 0 17 24 30 53 l24 52 0 -57 c1 -36 -3
-58 -11 -61 -7 -3 2 -6 20 -6 29 -1 32 1 22 18 -13 25 -13 87 0 112 9 16 7 19
-14 19 -20 0 -28 -9 -42 -45 -9 -25 -20 -45 -24 -45 -4 0 -15 20 -24 45 -14
34 -23 45 -39 45 -21 0 -22 -5 -22 -75z"/>
<path d="M2375 295 l0 -75 30 1 c17 0 24 3 18 6 -7 2 -13 18 -13 34 0 27 3 29
35 29 32 0 35 -2 35 -29 0 -16 -6 -32 -12 -34 -7 -3 1 -6 17 -6 l30 -1 0 75 0
75 -30 -1 c-16 0 -24 -3 -17 -6 6 -2 12 -18 12 -34 0 -26 -3 -29 -35 -29 -32
0 -35 3 -35 29 0 16 6 32 13 34 6 3 -1 6 -18 6 l-30 1 0 -75z"/>
<path d="M2578 363 c-10 -2 -18 -11 -18 -19 0 -19 9 -18 32 3 15 13 23 15 36
7 32 -21 25 -39 -21 -51 -48 -13 -63 -33 -47 -64 13 -23 47 -25 72 -2 17 15
18 15 18 0 0 -11 8 -17 22 -17 17 0 19 3 10 12 -7 7 -12 35 -12 63 0 28 -5 56
-12 63 -12 12 -46 14 -80 5z m72 -74 c0 -23 -22 -49 -41 -49 -28 0 -37 30 -14
46 22 17 55 18 55 3z"/>
<path d="M2733 364 c-7 -3 -13 -13 -13 -21 0 -14 2 -14 19 1 27 24 56 17 56
-14 0 -20 -6 -26 -30 -31 l-30 -6 30 -4 c24 -3 30 -9 30 -29 0 -32 -40 -41
-60 -13 -15 20 -31 12 -22 -12 7 -18 68 -21 98 -5 23 13 25 48 4 57 -14 5 -14
8 2 25 13 15 15 23 7 36 -11 17 -66 26 -91 16z"/>
<path d="M2875 295 l0 -75 30 0 c23 0 26 3 15 10 -12 8 -9 16 23 47 l37 38 0
-42 c0 -24 -5 -43 -12 -46 -7 -3 1 -6 17 -6 l30 -1 0 75 0 75 -30 -1 c-16 0
-24 -3 -17 -6 21 -8 14 -27 -23 -63 l-35 -34 0 46 c0 28 5 48 13 51 6 3 -1 6
-18 6 l-30 1 0 -75z"/>
<path d="M3078 359 c-22 -13 -23 -45 -2 -57 15 -8 15 -12 0 -40 -8 -16 -21
-32 -28 -35 -7 -3 -2 -6 12 -6 19 0 29 8 40 32 20 44 50 49 50 9 0 -17 -6 -33
-12 -35 -7 -3 1 -6 17 -6 l30 -1 0 75 0 75 -45 0 c-25 0 -53 -5 -62 -11z m72
-29 c0 -25 -4 -30 -25 -30 -27 0 -41 20 -31 45 3 8 17 15 31 15 21 0 25 -5 25
-30z"/>
<path d="M3608 363 c8 -3 12 -34 12 -103 0 -69 -4 -100 -12 -103 -7 -3 5 -5
27 -5 22 0 34 2 28 5 -7 2 -13 18 -13 34 0 26 4 29 30 29 42 0 70 31 70 79 0
60 -34 85 -81 61 -13 -7 -19 -7 -19 0 0 5 -12 10 -27 9 -16 0 -22 -3 -15 -6z
m107 -67 c0 -52 -18 -75 -49 -63 -11 5 -16 19 -16 50 0 48 15 69 45 65 17 -3
20 -11 20 -52z"/>
<path d="M3795 295 l0 -75 30 0 c23 0 26 3 15 10 -12 8 -9 16 23 47 l37 38 0
-42 c0 -24 -5 -43 -12 -46 -7 -3 1 -6 17 -6 l30 -1 0 75 0 75 -30 -1 c-16 0
-24 -3 -17 -6 21 -8 14 -27 -23 -63 l-35 -34 0 46 c0 28 5 48 13 51 6 3 -1 6
-18 6 l-30 1 0 -75z"/>
<path d="M4000 350 c-13 -13 -20 -33 -20 -58 0 -66 57 -95 96 -49 10 12 12 16
4 10 -25 -22 -60 -16 -71 14 -20 53 27 119 56 79 16 -22 31 -16 22 9 -9 22
-63 19 -87 -5z"/>
<path d="M4110 348 c0 -20 1 -20 18 -5 10 10 24 17 30 17 16 0 16 -112 0 -128
-9 -9 -4 -12 22 -12 26 0 31 3 22 12 -16 16 -16 128 0 128 6 0 20 -7 30 -17
17 -15 18 -15 18 5 0 20 -5 22 -70 22 -65 0 -70 -2 -70 -22z"/>
<path d="M4300 350 c-29 -29 -27 -94 2 -114 52 -37 108 -4 108 63 0 30 -6 44
-22 55 -31 22 -64 20 -88 -4z m70 -5 c26 -32 9 -115 -25 -115 -21 0 -37 28
-37 65 0 37 16 65 37 65 7 0 18 -7 25 -15z"/>
<path d="M4730 350 c-29 -29 -27 -94 2 -114 52 -37 108 -4 108 63 0 30 -6 44
-22 55 -31 22 -64 20 -88 -4z m70 -5 c26 -32 9 -115 -25 -115 -21 0 -37 28
-37 65 0 37 16 65 37 65 7 0 18 -7 25 -15z"/>
<path d="M4870 348 c0 -20 1 -20 18 -5 10 10 24 17 30 17 16 0 16 -112 0 -128
-9 -9 -4 -12 22 -12 26 0 31 3 22 12 -16 16 -16 128 0 128 6 0 20 -7 30 -17
17 -15 18 -15 18 5 0 20 -5 22 -70 22 -65 0 -70 -2 -70 -22z"/>
<path d="M5060 350 c-29 -29 -27 -94 2 -114 31 -22 61 -20 84 5 19 22 19 22
-4 10 -34 -18 -69 -6 -74 24 -5 24 -3 25 43 25 45 0 49 2 49 25 0 44 -64 61
-100 25z m70 -9 c15 -29 13 -31 -25 -31 -36 0 -46 15 -23 38 18 18 36 15 48
-7z"/>
<path d="M5210 351 c5 -11 10 -36 10 -56 0 -20 -5 -45 -10 -56 -10 -17 -7 -19
35 -19 26 0 55 5 66 10 23 13 25 46 3 58 -14 8 -14 10 0 21 36 30 2 61 -65 61
-46 0 -49 -1 -39 -19z m85 -21 c0 -20 -6 -26 -27 -28 -25 -3 -28 0 -28 28 0
28 3 31 28 28 21 -2 27 -8 27 -28z m0 -70 c0 -20 -6 -26 -27 -28 -25 -3 -28 0
-28 28 0 28 3 31 28 28 21 -2 27 -8 27 -28z"/>
</g>
</svg>
